<svg xmlns="http://www.w3.org/2000/svg" xmlns:xlink="http://www.w3.org/1999/xlink" viewBox="0 0 560 360" width="560" height="360" role="img" aria-labelledby="t">
  <title id="t">TrueVibe: Trust scoring for social media, powered by a Python AI service. Stack: React · Express · MongoDB · FastAPI. Architecture Sketch. DEMO + SOURCE.</title>
  <defs>
    <pattern id="gd" width="28" height="28" patternUnits="userSpaceOnUse"><path d="M28 0H0V28" fill="none" stroke="#2A2A2A" stroke-width="1" opacity="0.6"/></pattern>
    <clipPath id="ci"><rect width="560" height="240"/></clipPath>
    <linearGradient id="fade" x1="0" y1="0" x2="0" y2="1"><stop offset="0" stop-color="#171717" stop-opacity="0"/><stop offset="1" stop-color="#171717" stop-opacity=".95"/></linearGradient>
    <style>
      .sans{font-family:Inter,-apple-system,'Segoe UI',Helvetica,Arial,sans-serif}.mono{font-family:ui-monospace,'SF Mono',SFMono-Regular,Menlo,Consolas,monospace}
      .pulse{animation:pu 2.8s ease-in-out infinite}
      @keyframes pu{0%,100%{opacity:.35}50%{opacity:1}}
      .fa{animation:fa 5.5s ease-in-out infinite}
      @keyframes fa{0%,100%{transform:translateY(0)}50%{transform:translateY(-6px)}}
      .flow{stroke-dasharray:3 6;animation:fl 1.6s linear infinite}
      @keyframes fl{to{stroke-dashoffset:-9}}
      .tk{opacity:0;animation:tk 12s linear infinite}
      .tk.a{opacity:1}
      @keyframes tk{0%{opacity:0}2%{opacity:1}23%{opacity:1}26%{opacity:0}100%{opacity:0}}
      .nudge{animation:nd 2.4s ease-in-out infinite}
      @keyframes nd{0%,100%{transform:translate(0,0)}50%{transform:translate(3px,-3px)}}
      .st{display:none}
      .kb{transform-box:fill-box;transform-origin:center;animation:kb 18s ease-in-out infinite alternate}
      @keyframes kb{from{transform:scale(1)}to{transform:scale(1.09)}}
      @media (prefers-reduced-motion:reduce){.pulse,.fa,.flow,.nudge,.kb{animation:none}.tk{animation:none;opacity:0}.tk.a{opacity:1}.mv{display:none}.st{display:inline}}
    </style>
  </defs>
  <rect width="560" height="360" rx="6" fill="#171717"/>
  <g clip-path="url(#ci)">
  <rect width="560" height="240" fill="url(#gd)"/>
  <rect x="36" y="82" width="88" height="76" fill="#121212" stroke="#F5F3EA" stroke-width="2"/><path d="M66 104L96 120L66 136Z" fill="#FCD107"/><text x="80" y="180" class="mono" font-size="11" font-weight="700" letter-spacing="1.5" text-anchor="middle" fill="#9A9A94">MEDIA</text>
  <path d="M124 120C168 120 170 46 214 46" fill="none" stroke="#FCD107" stroke-opacity=".6" class="flow"/>
  <path d="M310 46C360 46 380 120 424 120" fill="none" stroke="#FCD107" stroke-opacity=".6" class="flow"/>
  <rect x="214" y="34" width="96" height="24" fill="#0A0A0A" stroke="#F5F3EA" stroke-opacity=".7" stroke-width="1.5"/><text x="262" y="50.5" class="mono" font-size="12" font-weight="700" letter-spacing="1.5" text-anchor="middle" fill="#F5F3EA">FFT</text>
  <path d="M124 120C168 120 170 76 214 76" fill="none" stroke="#FCD107" stroke-opacity=".6" class="flow"/>
  <path d="M310 76C360 76 380 120 424 120" fill="none" stroke="#FCD107" stroke-opacity=".6" class="flow"/>
  <rect x="214" y="64" width="96" height="24" fill="#0A0A0A" stroke="#F5F3EA" stroke-opacity=".7" stroke-width="1.5"/><text x="262" y="80.5" class="mono" font-size="12" font-weight="700" letter-spacing="1.5" text-anchor="middle" fill="#F5F3EA">EYE</text>
  <path d="M124 120C168 120 170 106 214 106" fill="none" stroke="#FCD107" stroke-opacity=".6" class="flow"/>
  <path d="M310 106C360 106 380 120 424 120" fill="none" stroke="#FCD107" stroke-opacity=".6" class="flow"/>
  <rect x="214" y="94" width="96" height="24" fill="#0A0A0A" stroke="#F5F3EA" stroke-opacity=".7" stroke-width="1.5"/><text x="262" y="110.5" class="mono" font-size="12" font-weight="700" letter-spacing="1.5" text-anchor="middle" fill="#F5F3EA">COLOR</text>
  <path d="M124 120C168 120 170 136 214 136" fill="none" stroke="#FCD107" stroke-opacity=".6" class="flow"/>
  <path d="M310 136C360 136 380 120 424 120" fill="none" stroke="#FCD107" stroke-opacity=".6" class="flow"/>
  <rect x="214" y="124" width="96" height="24" fill="#0A0A0A" stroke="#F5F3EA" stroke-opacity=".7" stroke-width="1.5"/><text x="262" y="140.5" class="mono" font-size="12" font-weight="700" letter-spacing="1.5" text-anchor="middle" fill="#F5F3EA">NOISE</text>
  <path d="M124 120C168 120 170 166 214 166" fill="none" stroke="#FCD107" stroke-opacity=".6" class="flow"/>
  <path d="M310 166C360 166 380 120 424 120" fill="none" stroke="#FCD107" stroke-opacity=".6" class="flow"/>
  <rect x="214" y="154" width="96" height="24" fill="#0A0A0A" stroke="#F5F3EA" stroke-opacity=".7" stroke-width="1.5"/><text x="262" y="170.5" class="mono" font-size="12" font-weight="700" letter-spacing="1.5" text-anchor="middle" fill="#F5F3EA">EDGE</text>
  <path d="M124 120C168 120 170 196 214 196" fill="none" stroke="#FCD107" stroke-opacity=".6" class="flow"/>
  <path d="M310 196C360 196 380 120 424 120" fill="none" stroke="#FCD107" stroke-opacity=".6" class="flow"/>
  <rect x="214" y="184" width="96" height="24" fill="#0A0A0A" stroke="#F5F3EA" stroke-opacity=".7" stroke-width="1.5"/><text x="262" y="200.5" class="mono" font-size="12" font-weight="700" letter-spacing="1.5" text-anchor="middle" fill="#F5F3EA">MOUTH</text>
  <circle cx="470" cy="120" r="46" fill="#121212" stroke="#FCD107" stroke-width="3"/><circle class="mv" cx="470" cy="120" r="46" fill="none" stroke="#FCD107" stroke-width="2"><animate attributeName="r" values="46;62" dur="2.4s" repeatCount="indefinite"/><animate attributeName="stroke-opacity" values=".7;0" dur="2.4s" repeatCount="indefinite"/></circle><text x="470" y="125" class="mono" font-size="13" font-weight="800" letter-spacing="1.2" text-anchor="middle" fill="#F5F3EA">VERDICT</text><text x="470" y="192" class="mono" font-size="11" font-weight="600" letter-spacing="0.5" text-anchor="middle" fill="#9A9A94">needs corroboration</text>
<text x="24" y="224" class="mono" font-size="11" font-weight="700" letter-spacing="1.5" fill="#FCD107">EVIDENCE FUSION · DEV BRANCH</text>
  </g>
  
  <rect x="16" y="16" width="137.4" height="26" fill="#FCD107"/>
  <text x="28" y="34" class="mono" font-size="12" font-weight="800" letter-spacing="1.5" textLength="113.4" lengthAdjust="spacingAndGlyphs" fill="#0A0A0A">01 · FLAGSHIP</text>
  <rect x="381.1" y="16" width="162.9" height="26" fill="#0A0A0A" fill-opacity=".78"/>
  <text x="534" y="33" class="mono" font-size="10.5" font-weight="700" letter-spacing="1.2" text-anchor="end" textLength="142.9" lengthAdjust="spacingAndGlyphs" fill="#F5F3EA">ARCHITECTURE SKETCH</text>
  <rect x="1" y="1" width="558" height="358" rx="5" fill="none" stroke="#FCD107" stroke-width="3"/>
  <path d="M0 240H560" stroke="#FCD107" stroke-width="2"/>
  <text x="24" y="288" class="sans" font-size="36" font-weight="900" letter-spacing="-0.5" textLength="161.3" lengthAdjust="spacingAndGlyphs" fill="#F5F3EA">TrueVibe</text>
  <g class="nudge"><path d="M514 288L536 266M522 264H536V278" fill="none" stroke="#FCD107" stroke-width="3" stroke-linecap="round" stroke-linejoin="round"/></g>
  <text x="24" y="316" class="sans" font-size="16" font-weight="500" fill="#9A9A94">Trust scoring for social media, powered by a Python AI service.</text>
  <text x="24" y="346" class="mono" font-size="13" font-weight="700" fill="#F5F3EA">React · Express · MongoDB · FastAPI</text>
  <text x="536" y="346" class="mono" font-size="12" font-weight="800" letter-spacing="1.5" text-anchor="end" fill="#FCD107">DEMO + SOURCE</text>
</svg>
