<svg xmlns="http://www.w3.org/2000/svg" viewBox="0 0 600 734" width="600" height="734" role="img" aria-labelledby="t d">
  <title id="t">Technology stack</title>
  <desc id="d">Languages + Frontend: TypeScript, JavaScript, Python, SQL, React, Next.js, Vite, Tailwind, TanStack, Framer Motion, three.js, GSAP. Backend + Apis: Node.js, Express, NestJS, REST, Socket.IO, WebRTC, Zod. Data + Caching: PostgreSQL, pgvector, MongoDB, Redis, BullMQ, Prisma, Supabase. Applied Ai: LLM APIs, RAG, PyTorch, transformers, FastAPI, STT / TTS. Infra + Automation: Docker, nginx, GitHub Actions, Vercel, Railway, Linux. Exploring · Not Claimed As Experience: LangGraph, CrewAI, MCP, Unsloth, Kubernetes, AWS.</desc>
  <defs>
    <pattern id="g" width="30" height="30" patternUnits="userSpaceOnUse"><path d="M30 0H0V30" fill="none" stroke="#2A2A2A" stroke-width="1" opacity="0.45"/></pattern>
    <style>.sans{font-family:Inter,-apple-system,'Segoe UI',Helvetica,Arial,sans-serif}.mono{font-family:ui-monospace,'SF Mono',SFMono-Regular,Menlo,Consolas,monospace}</style>
  </defs>
  <rect width="600" height="734" rx="6" fill="#0A0A0A"/>
  <rect width="600" height="734" rx="6" fill="url(#g)"/>
  <rect x="1" y="1" width="598" height="732" rx="5" fill="none" stroke="#2A2A2A" stroke-width="2"/>
  <rect x="32" y="21" width="10" height="10" fill="#FCD107"/>
  <text x="52" y="30" class="mono" font-size="12" font-weight="800" letter-spacing="2" fill="#FCD107">LANGUAGES + FRONTEND</text>
  <rect x="32" y="46" width="112.3" height="30" fill="#121212" stroke="#2A2A2A" stroke-width="2"/><rect x="32" y="46" width="4" height="30" fill="#FCD107"/>
  <text x="90.140625" y="66" class="mono" font-size="13.5" font-weight="700" letter-spacing="0.3" text-anchor="middle" textLength="84.3" lengthAdjust="spacingAndGlyphs" fill="#F5F3EA">TypeScript</text>
  <rect x="154.28125" y="46" width="112.3" height="30" fill="#121212" stroke="#2A2A2A" stroke-width="2"/><rect x="154.28125" y="46" width="4" height="30" fill="#FCD107"/>
  <text x="212.421875" y="66" class="mono" font-size="13.5" font-weight="700" letter-spacing="0.3" text-anchor="middle" textLength="84.3" lengthAdjust="spacingAndGlyphs" fill="#F5F3EA">JavaScript</text>
  <rect x="276.5625" y="46" width="78.6" height="30" fill="#121212" stroke="#2A2A2A" stroke-width="2"/><rect x="276.5625" y="46" width="4" height="30" fill="#FCD107"/>
  <text x="317.8515625" y="66" class="mono" font-size="13.5" font-weight="700" letter-spacing="0.3" text-anchor="middle" textLength="50.6" lengthAdjust="spacingAndGlyphs" fill="#F5F3EA">Python</text>
  <rect x="365.140625" y="46" width="53.3" height="30" fill="#121212" stroke="#2A2A2A" stroke-width="2"/><rect x="365.140625" y="46" width="4" height="30" fill="#FCD107"/>
  <text x="393.7890625" y="66" class="mono" font-size="13.5" font-weight="700" letter-spacing="0.3" text-anchor="middle" textLength="25.3" lengthAdjust="spacingAndGlyphs" fill="#F5F3EA">SQL</text>
  <rect x="428.4375" y="46" width="70.1" height="30" fill="#121212" stroke="#2A2A2A" stroke-width="2"/><rect x="428.4375" y="46" width="4" height="30" fill="#FCD107"/>
  <text x="465.5078125" y="66" class="mono" font-size="13.5" font-weight="700" letter-spacing="0.3" text-anchor="middle" textLength="42.1" lengthAdjust="spacingAndGlyphs" fill="#F5F3EA">React</text>
  <rect x="32" y="86" width="87.0" height="30" fill="#121212" stroke="#2A2A2A" stroke-width="2"/><rect x="32" y="86" width="4" height="30" fill="#FCD107"/>
  <text x="77.5" y="106" class="mono" font-size="13.5" font-weight="700" letter-spacing="0.3" text-anchor="middle" textLength="59.0" lengthAdjust="spacingAndGlyphs" fill="#F5F3EA">Next.js</text>
  <rect x="129" y="86" width="61.7" height="30" fill="#121212" stroke="#2A2A2A" stroke-width="2"/><rect x="129" y="86" width="4" height="30" fill="#FCD107"/>
  <text x="161.859375" y="106" class="mono" font-size="13.5" font-weight="700" letter-spacing="0.3" text-anchor="middle" textLength="33.7" lengthAdjust="spacingAndGlyphs" fill="#F5F3EA">Vite</text>
  <rect x="200.71875" y="86" width="95.4" height="30" fill="#121212" stroke="#2A2A2A" stroke-width="2"/><rect x="200.71875" y="86" width="4" height="30" fill="#FCD107"/>
  <text x="250.4296875" y="106" class="mono" font-size="13.5" font-weight="700" letter-spacing="0.3" text-anchor="middle" textLength="67.4" lengthAdjust="spacingAndGlyphs" fill="#F5F3EA">Tailwind</text>
  <rect x="306.140625" y="86" width="95.4" height="30" fill="#121212" stroke="#2A2A2A" stroke-width="2"/><rect x="306.140625" y="86" width="4" height="30" fill="#FCD107"/>
  <text x="355.8515625" y="106" class="mono" font-size="13.5" font-weight="700" letter-spacing="0.3" text-anchor="middle" textLength="67.4" lengthAdjust="spacingAndGlyphs" fill="#F5F3EA">TanStack</text>
  <rect x="411.5625" y="86" width="137.6" height="30" fill="#121212" stroke="#2A2A2A" stroke-width="2"/><rect x="411.5625" y="86" width="4" height="30" fill="#FCD107"/>
  <text x="482.34375" y="106" class="mono" font-size="13.5" font-weight="700" letter-spacing="0.3" text-anchor="middle" textLength="109.6" lengthAdjust="spacingAndGlyphs" fill="#F5F3EA">Framer Motion</text>
  <rect x="32" y="126" width="95.4" height="30" fill="#121212" stroke="#2A2A2A" stroke-width="2"/><rect x="32" y="126" width="4" height="30" fill="#FCD107"/>
  <text x="81.7109375" y="146" class="mono" font-size="13.5" font-weight="700" letter-spacing="0.3" text-anchor="middle" textLength="67.4" lengthAdjust="spacingAndGlyphs" fill="#F5F3EA">three.js</text>
  <rect x="137.421875" y="126" width="61.7" height="30" fill="#121212" stroke="#2A2A2A" stroke-width="2"/><rect x="137.421875" y="126" width="4" height="30" fill="#FCD107"/>
  <text x="170.28125" y="146" class="mono" font-size="13.5" font-weight="700" letter-spacing="0.3" text-anchor="middle" textLength="33.7" lengthAdjust="spacingAndGlyphs" fill="#F5F3EA">GSAP</text>
  <rect x="32" y="173" width="10" height="10" fill="#FCD107"/>
  <text x="52" y="182" class="mono" font-size="12" font-weight="800" letter-spacing="2" fill="#FCD107">BACKEND + APIS</text>
  <rect x="32" y="198" width="87.0" height="30" fill="#121212" stroke="#2A2A2A" stroke-width="2"/><rect x="32" y="198" width="4" height="30" fill="#FCD107"/>
  <text x="77.5" y="218" class="mono" font-size="13.5" font-weight="700" letter-spacing="0.3" text-anchor="middle" textLength="59.0" lengthAdjust="spacingAndGlyphs" fill="#F5F3EA">Node.js</text>
  <rect x="129" y="198" width="87.0" height="30" fill="#121212" stroke="#2A2A2A" stroke-width="2"/><rect x="129" y="198" width="4" height="30" fill="#FCD107"/>
  <text x="174.5" y="218" class="mono" font-size="13.5" font-weight="700" letter-spacing="0.3" text-anchor="middle" textLength="59.0" lengthAdjust="spacingAndGlyphs" fill="#F5F3EA">Express</text>
  <rect x="226" y="198" width="78.6" height="30" fill="#121212" stroke="#2A2A2A" stroke-width="2"/><rect x="226" y="198" width="4" height="30" fill="#FCD107"/>
  <text x="267.2890625" y="218" class="mono" font-size="13.5" font-weight="700" letter-spacing="0.3" text-anchor="middle" textLength="50.6" lengthAdjust="spacingAndGlyphs" fill="#F5F3EA">NestJS</text>
  <rect x="314.578125" y="198" width="61.7" height="30" fill="#121212" stroke="#2A2A2A" stroke-width="2"/><rect x="314.578125" y="198" width="4" height="30" fill="#FCD107"/>
  <text x="347.4375" y="218" class="mono" font-size="13.5" font-weight="700" letter-spacing="0.3" text-anchor="middle" textLength="33.7" lengthAdjust="spacingAndGlyphs" fill="#F5F3EA">REST</text>
  <rect x="386.296875" y="198" width="103.9" height="30" fill="#121212" stroke="#2A2A2A" stroke-width="2"/><rect x="386.296875" y="198" width="4" height="30" fill="#FCD107"/>
  <text x="440.2265625" y="218" class="mono" font-size="13.5" font-weight="700" letter-spacing="0.3" text-anchor="middle" textLength="75.9" lengthAdjust="spacingAndGlyphs" fill="#F5F3EA">Socket.IO</text>
  <rect x="32" y="238" width="78.6" height="30" fill="#121212" stroke="#2A2A2A" stroke-width="2"/><rect x="32" y="238" width="4" height="30" fill="#FCD107"/>
  <text x="73.2890625" y="258" class="mono" font-size="13.5" font-weight="700" letter-spacing="0.3" text-anchor="middle" textLength="50.6" lengthAdjust="spacingAndGlyphs" fill="#F5F3EA">WebRTC</text>
  <rect x="120.578125" y="238" width="53.3" height="30" fill="#121212" stroke="#2A2A2A" stroke-width="2"/><rect x="120.578125" y="238" width="4" height="30" fill="#FCD107"/>
  <text x="149.2265625" y="258" class="mono" font-size="13.5" font-weight="700" letter-spacing="0.3" text-anchor="middle" textLength="25.3" lengthAdjust="spacingAndGlyphs" fill="#F5F3EA">Zod</text>
  <rect x="32" y="285" width="10" height="10" fill="#FCD107"/>
  <text x="52" y="294" class="mono" font-size="12" font-weight="800" letter-spacing="2" fill="#FCD107">DATA + CACHING</text>
  <rect x="32" y="310" width="112.3" height="30" fill="#121212" stroke="#2A2A2A" stroke-width="2"/><rect x="32" y="310" width="4" height="30" fill="#FCD107"/>
  <text x="90.140625" y="330" class="mono" font-size="13.5" font-weight="700" letter-spacing="0.3" text-anchor="middle" textLength="84.3" lengthAdjust="spacingAndGlyphs" fill="#F5F3EA">PostgreSQL</text>
  <rect x="154.28125" y="310" width="95.4" height="30" fill="#121212" stroke="#2A2A2A" stroke-width="2"/><rect x="154.28125" y="310" width="4" height="30" fill="#FCD107"/>
  <text x="203.9921875" y="330" class="mono" font-size="13.5" font-weight="700" letter-spacing="0.3" text-anchor="middle" textLength="67.4" lengthAdjust="spacingAndGlyphs" fill="#F5F3EA">pgvector</text>
  <rect x="259.703125" y="310" width="87.0" height="30" fill="#121212" stroke="#2A2A2A" stroke-width="2"/><rect x="259.703125" y="310" width="4" height="30" fill="#FCD107"/>
  <text x="305.203125" y="330" class="mono" font-size="13.5" font-weight="700" letter-spacing="0.3" text-anchor="middle" textLength="59.0" lengthAdjust="spacingAndGlyphs" fill="#F5F3EA">MongoDB</text>
  <rect x="356.703125" y="310" width="70.1" height="30" fill="#121212" stroke="#2A2A2A" stroke-width="2"/><rect x="356.703125" y="310" width="4" height="30" fill="#FCD107"/>
  <text x="393.7734375" y="330" class="mono" font-size="13.5" font-weight="700" letter-spacing="0.3" text-anchor="middle" textLength="42.1" lengthAdjust="spacingAndGlyphs" fill="#F5F3EA">Redis</text>
  <rect x="436.84375" y="310" width="78.6" height="30" fill="#121212" stroke="#2A2A2A" stroke-width="2"/><rect x="436.84375" y="310" width="4" height="30" fill="#FCD107"/>
  <text x="478.1328125" y="330" class="mono" font-size="13.5" font-weight="700" letter-spacing="0.3" text-anchor="middle" textLength="50.6" lengthAdjust="spacingAndGlyphs" fill="#F5F3EA">BullMQ</text>
  <rect x="32" y="350" width="78.6" height="30" fill="#121212" stroke="#2A2A2A" stroke-width="2"/><rect x="32" y="350" width="4" height="30" fill="#FCD107"/>
  <text x="73.2890625" y="370" class="mono" font-size="13.5" font-weight="700" letter-spacing="0.3" text-anchor="middle" textLength="50.6" lengthAdjust="spacingAndGlyphs" fill="#F5F3EA">Prisma</text>
  <rect x="120.578125" y="350" width="95.4" height="30" fill="#121212" stroke="#2A2A2A" stroke-width="2"/><rect x="120.578125" y="350" width="4" height="30" fill="#FCD107"/>
  <text x="170.2890625" y="370" class="mono" font-size="13.5" font-weight="700" letter-spacing="0.3" text-anchor="middle" textLength="67.4" lengthAdjust="spacingAndGlyphs" fill="#F5F3EA">Supabase</text>
  <rect x="32" y="397" width="10" height="10" fill="#FCD107"/>
  <text x="52" y="406" class="mono" font-size="12" font-weight="800" letter-spacing="2" fill="#FCD107">APPLIED AI</text>
  <rect x="32" y="422" width="95.4" height="30" fill="#121212" stroke="#2A2A2A" stroke-width="2"/><rect x="32" y="422" width="4" height="30" fill="#FCD107"/>
  <text x="81.7109375" y="442" class="mono" font-size="13.5" font-weight="700" letter-spacing="0.3" text-anchor="middle" textLength="67.4" lengthAdjust="spacingAndGlyphs" fill="#F5F3EA">LLM APIs</text>
  <rect x="137.421875" y="422" width="53.3" height="30" fill="#121212" stroke="#2A2A2A" stroke-width="2"/><rect x="137.421875" y="422" width="4" height="30" fill="#FCD107"/>
  <text x="166.0703125" y="442" class="mono" font-size="13.5" font-weight="700" letter-spacing="0.3" text-anchor="middle" textLength="25.3" lengthAdjust="spacingAndGlyphs" fill="#F5F3EA">RAG</text>
  <rect x="200.71875" y="422" width="87.0" height="30" fill="#121212" stroke="#2A2A2A" stroke-width="2"/><rect x="200.71875" y="422" width="4" height="30" fill="#FCD107"/>
  <text x="246.21875" y="442" class="mono" font-size="13.5" font-weight="700" letter-spacing="0.3" text-anchor="middle" textLength="59.0" lengthAdjust="spacingAndGlyphs" fill="#F5F3EA">PyTorch</text>
  <rect x="297.71875" y="422" width="129.1" height="30" fill="#121212" stroke="#2A2A2A" stroke-width="2"/><rect x="297.71875" y="422" width="4" height="30" fill="#FCD107"/>
  <text x="364.2890625" y="442" class="mono" font-size="13.5" font-weight="700" letter-spacing="0.3" text-anchor="middle" textLength="101.1" lengthAdjust="spacingAndGlyphs" fill="#F5F3EA">transformers</text>
  <rect x="436.859375" y="422" width="87.0" height="30" fill="#121212" stroke="#2A2A2A" stroke-width="2"/><rect x="436.859375" y="422" width="4" height="30" fill="#FCD107"/>
  <text x="482.359375" y="442" class="mono" font-size="13.5" font-weight="700" letter-spacing="0.3" text-anchor="middle" textLength="59.0" lengthAdjust="spacingAndGlyphs" fill="#F5F3EA">FastAPI</text>
  <rect x="32" y="462" width="103.9" height="30" fill="#121212" stroke="#2A2A2A" stroke-width="2"/><rect x="32" y="462" width="4" height="30" fill="#FCD107"/>
  <text x="85.9296875" y="482" class="mono" font-size="13.5" font-weight="700" letter-spacing="0.3" text-anchor="middle" textLength="75.9" lengthAdjust="spacingAndGlyphs" fill="#F5F3EA">STT / TTS</text>
  <rect x="32" y="509" width="10" height="10" fill="#FCD107"/>
  <text x="52" y="518" class="mono" font-size="12" font-weight="800" letter-spacing="2" fill="#FCD107">INFRA + AUTOMATION</text>
  <rect x="32" y="534" width="78.6" height="30" fill="#121212" stroke="#2A2A2A" stroke-width="2"/><rect x="32" y="534" width="4" height="30" fill="#FCD107"/>
  <text x="73.2890625" y="554" class="mono" font-size="13.5" font-weight="700" letter-spacing="0.3" text-anchor="middle" textLength="50.6" lengthAdjust="spacingAndGlyphs" fill="#F5F3EA">Docker</text>
  <rect x="120.578125" y="534" width="70.1" height="30" fill="#121212" stroke="#2A2A2A" stroke-width="2"/><rect x="120.578125" y="534" width="4" height="30" fill="#FCD107"/>
  <text x="157.6484375" y="554" class="mono" font-size="13.5" font-weight="700" letter-spacing="0.3" text-anchor="middle" textLength="42.1" lengthAdjust="spacingAndGlyphs" fill="#F5F3EA">nginx</text>
  <rect x="200.71875" y="534" width="146.0" height="30" fill="#121212" stroke="#2A2A2A" stroke-width="2"/><rect x="200.71875" y="534" width="4" height="30" fill="#FCD107"/>
  <text x="275.71875" y="554" class="mono" font-size="13.5" font-weight="700" letter-spacing="0.3" text-anchor="middle" textLength="118.0" lengthAdjust="spacingAndGlyphs" fill="#F5F3EA">GitHub Actions</text>
  <rect x="356.71875" y="534" width="78.6" height="30" fill="#121212" stroke="#2A2A2A" stroke-width="2"/><rect x="356.71875" y="534" width="4" height="30" fill="#FCD107"/>
  <text x="398.0078125" y="554" class="mono" font-size="13.5" font-weight="700" letter-spacing="0.3" text-anchor="middle" textLength="50.6" lengthAdjust="spacingAndGlyphs" fill="#F5F3EA">Vercel</text>
  <rect x="445.296875" y="534" width="87.0" height="30" fill="#121212" stroke="#2A2A2A" stroke-width="2"/><rect x="445.296875" y="534" width="4" height="30" fill="#FCD107"/>
  <text x="490.796875" y="554" class="mono" font-size="13.5" font-weight="700" letter-spacing="0.3" text-anchor="middle" textLength="59.0" lengthAdjust="spacingAndGlyphs" fill="#F5F3EA">Railway</text>
  <rect x="32" y="574" width="70.1" height="30" fill="#121212" stroke="#2A2A2A" stroke-width="2"/><rect x="32" y="574" width="4" height="30" fill="#FCD107"/>
  <text x="69.0703125" y="594" class="mono" font-size="13.5" font-weight="700" letter-spacing="0.3" text-anchor="middle" textLength="42.1" lengthAdjust="spacingAndGlyphs" fill="#F5F3EA">Linux</text>
  <rect x="32" y="621" width="10" height="10" fill="#9A9A94"/>
  <text x="52" y="630" class="mono" font-size="12" font-weight="800" letter-spacing="2" fill="#9A9A94">EXPLORING · NOT CLAIMED AS EXPERIENCE</text>
  <rect x="32" y="646" width="103.9" height="30" fill="none" stroke="#9A9A94" stroke-width="2" stroke-dasharray="5 4"/>
  <text x="83.9296875" y="666" class="mono" font-size="13.5" font-weight="700" letter-spacing="0.3" text-anchor="middle" textLength="75.9" lengthAdjust="spacingAndGlyphs" fill="#9A9A94">LangGraph</text>
  <rect x="145.859375" y="646" width="78.6" height="30" fill="none" stroke="#9A9A94" stroke-width="2" stroke-dasharray="5 4"/>
  <text x="185.1484375" y="666" class="mono" font-size="13.5" font-weight="700" letter-spacing="0.3" text-anchor="middle" textLength="50.6" lengthAdjust="spacingAndGlyphs" fill="#9A9A94">CrewAI</text>
  <rect x="234.4375" y="646" width="53.3" height="30" fill="none" stroke="#9A9A94" stroke-width="2" stroke-dasharray="5 4"/>
  <text x="261.0859375" y="666" class="mono" font-size="13.5" font-weight="700" letter-spacing="0.3" text-anchor="middle" textLength="25.3" lengthAdjust="spacingAndGlyphs" fill="#9A9A94">MCP</text>
  <rect x="297.734375" y="646" width="87.0" height="30" fill="none" stroke="#9A9A94" stroke-width="2" stroke-dasharray="5 4"/>
  <text x="341.234375" y="666" class="mono" font-size="13.5" font-weight="700" letter-spacing="0.3" text-anchor="middle" textLength="59.0" lengthAdjust="spacingAndGlyphs" fill="#9A9A94">Unsloth</text>
  <rect x="394.734375" y="646" width="112.3" height="30" fill="none" stroke="#9A9A94" stroke-width="2" stroke-dasharray="5 4"/>
  <text x="450.875" y="666" class="mono" font-size="13.5" font-weight="700" letter-spacing="0.3" text-anchor="middle" textLength="84.3" lengthAdjust="spacingAndGlyphs" fill="#9A9A94">Kubernetes</text>
  <rect x="32" y="686" width="53.3" height="30" fill="none" stroke="#9A9A94" stroke-width="2" stroke-dasharray="5 4"/>
  <text x="58.6484375" y="706" class="mono" font-size="13.5" font-weight="700" letter-spacing="0.3" text-anchor="middle" textLength="25.3" lengthAdjust="spacingAndGlyphs" fill="#9A9A94">AWS</text>
</svg>
